<svg xmlns="http://www.w3.org/2000/svg" width="1038" height="764.064" viewBox="0 0 1038 764.064"><rect width="375" height="413" transform="translate(637 184.064)" fill="#f2f2f2"/><circle cx="262" cy="262" r="262" transform="translate(0 167.064)" fill="#f2f2f2"/><line y1="116.093" transform="translate(996.917 455.131)" fill="#3f3d56" stroke="#3f3d56" stroke-miterlimit="10" stroke-width="2"/><circle cx="16.417" cy="16.417" r="16.417" transform="translate(980.5 438.714)" fill="#3f3d56"/><path d="M1078.42,595.15s-2.345-50.443-50.424-44.58" transform="translate(-81.5 -68.468)" fill="#3f3d56"/><line y1="382.004" transform="translate(850.007 189.375)" fill="#3f3d56" stroke="#3f3d56" stroke-miterlimit="10" stroke-width="2"/><circle cx="16.417" cy="16.417" r="16.417" transform="translate(833.59 172.775)" fill="#3f3d56"/><circle cx="16.417" cy="16.417" r="16.417" transform="translate(783.166 452.94)" fill="#3f3d56"/><path d="M931.507,341.52s-2.345-50.443-50.424-44.58" transform="translate(-81.5 -68.468)" fill="#3f3d56"/><path d="M931.507,484.52s-2.345-50.443-50.424-44.58" transform="translate(-81.5 -68.468)" fill="#3f3d56"/><path d="M931.507,635.334s10.554-92.818-50.424-97.509" transform="translate(-81.5 -68.468)" fill="none" stroke="#3f3d56" stroke-miterlimit="10" stroke-width="2"/><circle cx="16.417" cy="16.417" r="16.417" transform="translate(884.022 452.94)" fill="#3f3d56"/><path d="M931.514,635.334s-10.554-92.818,50.424-97.509" transform="translate(-81.5 -68.468)" fill="none" stroke="#3f3d56" stroke-miterlimit="10" stroke-width="2"/><circle cx="16.417" cy="16.417" r="16.417" transform="translate(885.022 298.94)" fill="#3f3d56"/><path d="M932.514,481.334s-10.554-92.818,50.424-97.509" transform="translate(-81.5 -68.468)" fill="none" stroke="#3f3d56" stroke-miterlimit="10" stroke-width="2"/><line y1="232.187" transform="translate(736.356 339.692)" fill="#3f3d56" stroke="#3f3d56" stroke-miterlimit="10" stroke-width="2"/><circle cx="16.417" cy="16.417" r="16.417" transform="translate(719.939 323.275)" fill="#3f3d56"/><path d="M817.856,475.02s-2.345-50.443-50.424-44.58" transform="translate(-81.5 -68.468)" fill="#3f3d56"/><path d="M817.856,635.834s10.554-92.818-50.424-97.509" transform="translate(-81.5 -68.468)" fill="none" stroke="#3f3d56" stroke-miterlimit="10" stroke-width="2"/><circle cx="16.417" cy="16.417" r="16.417" transform="translate(669.515 453.44)" fill="#3f3d56"/><circle cx="64" cy="64" r="64" transform="translate(672 173.064)" fill="#ff6584"/><line x2="992" transform="translate(45 33.064)" fill="none" stroke="#3f3d56" stroke-miterlimit="10" stroke-width="2"/><line x2="519" transform="translate(282 763.064)" fill="none" stroke="#3f3d56" stroke-miterlimit="10" stroke-width="2"/><circle cx="11.064" cy="11.064" r="11.064" transform="translate(56 0)" fill="#e84545"/><circle cx="11.064" cy="11.064" r="11.064" transform="translate(84.936 0)" fill="#e84545"/><circle cx="11.064" cy="11.064" r="11.064" transform="translate(113.872 0)" fill="#e84545"/><rect width="375" height="413" transform="translate(662 159.064)" fill="none" stroke="#3f3d56" stroke-miterlimit="10" stroke-width="2"/><line y2="512" transform="translate(136 173.064)" fill="none" stroke="#3f3d56" stroke-miterlimit="10" stroke-width="2"/><circle cx="33" cy="33" r="33" transform="translate(517 697.064)" fill="#e84545"/><path d="M562.412,717.913l-16.534,16.534-7.833-7.834-3.05,3.05,10.873,10.873,19.594-19.573Z" fill="#fff"/><path d="M303.07,326.483s-2.674,9.8,2.674,13.369,7.13,20.5,7.13,20.5l-10.7,29.411-28.52,5.348-10.7-20.5v-30.3s3.565-15.151,2.674-19.608S303.07,326.483,303.07,326.483Z" transform="translate(-81.5 -68.468)" fill="#ffb9b9"/><path d="M303.07,326.483s-2.674,9.8,2.674,13.369,7.13,20.5,7.13,20.5l-10.7,29.411-28.52,5.348-10.7-20.5v-30.3s3.565-15.151,2.674-19.608S303.07,326.483,303.07,326.483Z" transform="translate(-81.5 -68.468)" opacity="0.2"/><path d="M331.59,494.93l23.173,4.456s1.783,25.846,0,32.085-3.565,13.369-1.783,15.151-8.021,47.237-7.13,49.91,2.674,10.7,1.783,16.043-3.565,3.565-1.783,8.913,3.565,6.239,1.783,9.8-10.7,90.017-13.369,90.908-26.738,1.783-26.738,0,8.021-15.151,5.348-18.716.891-64.17.891-66.844,5.348-7.13,2.674-8.913-4.456-3.565-3.565-6.239,2.674-3.565.891-6.239-1.783-56.149-8.021-57.932c0,0-8.021,39.215-5.348,49.019s-.891,13.369-.891,13.369l12.478,10.7-16.934,32.085-17.825-20.5s0-5.348-3.565-6.239-5.348-1.783-5.348-4.456-6.239-19.608-6.239-19.608-17.825-56.149-8.913-84.669,12.346-27.576,12.346-27.576Z" transform="translate(-81.5 -68.468)" fill="#2b2e4a"/><path d="M264.35,610.952l9.8,10.695-3.565,29.412h-8.022L250.09,623.43Z" fill="#ffb9b9"/><path d="M352.089,699.028s-3.565,8.021-6.239,6.239-3.56-4.456-7.573-4.456-7.578.891-6.687,2.674,11.586,21.39,11.586,21.39a25.193,25.193,0,0,1,0,21.39c-5.348,11.586,14.26,17.825,17.825,5.348s4.456-26.738,3.565-32.085,4.456-32.977,4.456-32.977-14.4-6.638-18.785-6.884C350.237,679.667,353.871,695.463,352.089,699.028Z" transform="translate(-81.5 -68.468)" fill="#2b2e4a"/><path d="M328.025,718.636l3.565,10.7s0,10.7,3.565,16.043,7.13,16.934-7.13,17.825-20.5-4.456-20.5-4.456,2.674-7.13,0-9.8,0-8.021,0-8.021l2.674-21.39Z" transform="translate(-81.5 -68.468)" fill="#2b2e4a"/><path d="M303.961,629.51h8.021l40.107,52.584s-7.13,16.934-17.825,18.716c0,0-1.783-.891-9.8-6.239s-29.411-32.085-29.411-32.085l-2.674-15.151Z" transform="translate(-81.5 -68.468)" fill="#2f2e41"/><circle cx="28.52" cy="28.52" r="28.52" transform="translate(174.333 212.561)" fill="#ffb9b9"/><path d="M319.112,346.091l-8.913-3.565s-.891,31.194-17.825,31.194-34.759-4.456-34.759-13.369-14.26,16.043-14.26,16.043,13.369,89.125,12.478,90.016,9.8,48.128,9.8,48.128,45.454,1.783,60.605-4.456,19.608-17.825,19.608-17.825l-6.239-78.43-12.478-60.605Z" transform="translate(-81.5 -68.468)" fill="#e84545"/><path d="M303.966,338.069s3.56-3.565,8.907,0,38.324,11.586,38.324,14.26V386.2s.891,5.348-1.783,8.913-8.913,16.934-5.348,23.173,16.934,78.431,14.26,87.343-9.8,16.934-9.8,16.934S310.2,441.455,310.2,418.282s.372-51.6.372-51.6Z" transform="translate(-81.5 -68.468)" fill="#903749"/><path d="M343.176,353.221H351.2s30.3,57.932,30.3,69.518-19.608,75.757-21.39,76.648-7.13-9.8-7.13-9.8l-4.456-35.65s8.913-21.39,6.239-24.955-16.043-31.194-16.043-31.194Z" transform="translate(-81.5 -68.468)" fill="#903749"/><path d="M264.281,338.069s-10.231,7.13-12.013,9.8-28.52,17.825-29.411,21.39,20.5,33.868,20.5,33.868,8.913,49.91,8.913,53.475,3.565,64.17,3.565,64.17,36.541,10.7,36.541,4.456.891-95.364-4.456-114.972S264.281,338.069,264.281,338.069Z" transform="translate(-81.5 -68.468)" fill="#903749"/><path d="M270.093,522.559s30.3,41,14.26,40.107-26.738-35.65-26.738-35.65Z" transform="translate(-81.5 -68.468)" fill="#ffb9b9"/><path d="M233.552,366.59l-10.7,2.674s-8.913,78.431-3.565,89.126S253.16,538.6,253.16,535.929s25.089-7.44,24.131-9.959-6.306-13.214-8.088-16.779-4.456-8.021-3.565-12.478-9.8-23.531-9.8-23.531-2.674-11.228-3.565-16.576-8.913-64.17-8.913-64.17Z" transform="translate(-81.5 -68.468)" fill="#903749"/><path d="M312.317,287.471a7.087,7.087,0,0,0-3.227-3.965,15.185,15.185,0,0,0-.681-5.233c-1.775-4.94-5.981-4.657-9.949-6.841-1.722-.948-1.615-1.785-2.511-3.341a12.792,12.792,0,0,0-5.077-4.876c-2.546-1.527-5.233-3.1-8.245-3.292-6.329-.406-11.181,5.2-17.231,7-2.666.793-5.531.825-8.212,1.575s-5.355,2.538-5.754,5.143c-.184,1.2.141,2.436-.046,3.638-.372,2.389-2.6,4.063-4.09,6.028-3.3,4.346-2.92,10.486-.283,15.215a21.269,21.269,0,0,0,1.9,2.8,16.482,16.482,0,0,0,2.007,6.4c2.637,4.729,7.174,8.262,11.913,11.2a25.009,25.009,0,0,1-.7-4.775,3.116,3.116,0,0,1,.216-1.582c.528-1.039,1.923-1.315,2.986-1.883,2.2-1.178,3.066-3.785,3.13-6.169s-.473-4.771-.208-7.143a3.814,3.814,0,0,1,1.419-2.871,5.15,5.15,0,0,1,2.676-.6c4.513-.173,9.228-.251,13.209-2.26a20.073,20.073,0,0,1,4.111-1.957c3.383-.83,6.84,1.4,8.79,4.133s2.922,5.982,4.72,8.8,4.906,5.338,8.384,5a1.431,1.431,0,0,0,1.039-.435,1.4,1.4,0,0,0,.191-.833l.194-12.513a17.851,17.851,0,0,0-.67-6.36Z" transform="translate(-81.5 -68.468)" fill="#2f2e41"/></svg>