<svg xmlns="http://www.w3.org/2000/svg" width="1126.197" height="855"><rect id="backgroundrect" width="100%" height="100%" x="0" y="0" fill="none" stroke="none"/><g class="currentLayer" style=""><title>Layer 1</title><g id="svg_1" class="selected" opacity="0.29"><path d="M544.8650001220703,755.938 C302.46600012207034,737.491 13.39700012207031,549.672 28.11100012207031,356.281 S322.7970001220703,-17.142 565.1970001220703,1.3049999999999997 S947.1280001220703,381.167 932.4110001220703,574.558 S787.2630001220704,774.385 544.8650001220703,755.938 z" fill="#f2f2f2" id="svg_2" opacity="0.29"/><path d="M565.1940002441406,725 c279.456,0 506,13.879 506,31 S844.6500002441406,787 565.1940002441406,787 S59.194000244140625,773.121 59.194000244140625,756 S285.7380002441406,725 565.1940002441406,725 z" fill="#d0cde1" id="svg_3" opacity="0.29"/><path d="M565.1940002441406,735 C803.2290002441406,735 996.1940002441406,744.178 996.1940002441406,755.5 S803.2290002441406,776 565.1940002441406,776 S134.19400024414062,766.822 134.19400024414062,755.5 S327.15900024414066,735 565.1940002441406,735 z" fill="#53354a" opacity="0.29" id="svg_4"/><ellipse cx="212.19400024414062" cy="836.5" rx="212.19400024414062" ry="18.5" fill="#3f3d56" id="svg_5" opacity="0.29"/><path d="M212.19399966430663,823.968017578125 c99.821,0 180.742,5.477 180.742,12.234 S312.01499966430663,848.436017578125 212.19399966430663,848.436017578125 S31.45199966430664,842.958017578125 31.45199966430664,836.202017578125 S112.37299966430665,823.968017578125 212.19399966430663,823.968017578125 z" fill="#d0cde1" opacity="0.29" id="svg_6"/><rect width="752" height="590" fill="#53354a" y="162" x="196.19400024414062" id="svg_7" opacity="0.29"/><path d="M563.6380001220704,242.62900000000002 H378.1210001220703 a2.251,2.251 0 0 1 0,-4.5 H563.6380001220704 a2.251,2.251 0 1 1 0,4.5 z" fill="#f2f2f2" id="svg_8" opacity="0.29"/><path d="M766.7170001220703,267.395 H474.9320001220703 a2.251,2.251 0 1 1 0,-4.5 H766.7170001220703 a2.251,2.251 0 1 1 0,4.5 z" fill="#f2f2f2" id="svg_9" opacity="0.29"/><path d="M564.5390001220703,292.161 H379.0210001220703 a2.251,2.251 0 0 1 0,-4.5 H564.5390001220703 a2.251,2.251 0 1 1 0,4.5 z" fill="#f2f2f2" id="svg_10" opacity="0.29"/><path d="M766.7170001220703,292.611 H581.1970001220703 a2.251,2.251 0 0 1 0,-4.5 H766.7170001220703 a2.251,2.251 0 1 1 0,4.5 z" fill="#f2f2f2" id="svg_11" opacity="0.29"/><path d="M564.9890001220704,316.926 H379.47100012207034 a2.251,2.251 0 0 1 0,-4.5 H564.9890001220704 a2.251,2.251 0 0 1 0,4.5 z" fill="#f2f2f2" id="svg_12" opacity="0.29"/><path d="M565.4390001220703,341.692 H379.9220001220703 a2.251,2.251 0 0 1 0,-4.5 H565.4390001220703 a2.251,2.251 0 0 1 0,4.5 z" fill="#f2f2f2" id="svg_13" opacity="0.29"/><path d="M649.6430001220704,243.079 H596.5090001220703 a2.251,2.251 0 1 1 0,-4.5 h53.134 a2.251,2.251 0 0 1 0,4.5 z" fill="#f2f2f2" id="svg_14" opacity="0.29"/><path d="M649.6430001220704,316.926 H596.5090001220703 a2.251,2.251 0 1 1 0,-4.5 h53.134 a2.251,2.251 0 0 1 0,4.5 z" fill="#f2f2f2" id="svg_15" opacity="0.29"/><path d="M649.6430001220704,341.242 H596.5090001220703 a2.251,2.251 0 0 1 0,-4.5 h53.134 a2.251,2.251 0 0 1 0,4.5 z" fill="#f2f2f2" id="svg_16" opacity="0.29"/><path d="M738.7970001220704,341.242 H685.6660001220703 a2.251,2.251 0 0 1 0,-4.5 H738.7970001220704 a2.251,2.251 0 0 1 0,4.5 z" fill="#f2f2f2" id="svg_17" opacity="0.29"/><path d="M430.8040001220703,267.395 H377.6700001220703 a2.251,2.251 0 0 1 0,-4.5 h53.134 a2.251,2.251 0 0 1 0,4.5 z" fill="#f2f2f2" id="svg_18" opacity="0.29"/><path d="M563.8630001220703,607.361 H378.34600012207034 a2.251,2.251 0 1 1 0,-4.5 H563.8630001220703 a2.251,2.251 0 1 1 0,4.5 z" fill="#f2f2f2" id="svg_19" opacity="0.29"/><path d="M562.9630001220703,656.892 H377.4450001220703 a2.251,2.251 0 1 1 0,-4.5 H562.9630001220703 a2.251,2.251 0 0 1 0,4.5 z" fill="#f2f2f2" id="svg_20" opacity="0.29"/><path d="M563.4130001220703,681.658 H377.8970001220703 a2.251,2.251 0 1 1 0,-4.5 H563.4130001220703 a2.251,2.251 0 0 1 0,4.5 z" fill="#f2f2f2" id="svg_21" opacity="0.29"/><path d="M642.6630001220703,657.342 H589.5300001220703 a2.251,2.251 0 1 1 0,-4.5 h53.134 a2.251,2.251 0 0 1 0,4.5 z" fill="#f2f2f2" id="svg_22" opacity="0.29"/><path d="M642.6630001220703,681.658 H589.5300001220703 a2.251,2.251 0 1 1 0,-4.5 h53.134 a2.251,2.251 0 1 1 0,4.5 z" fill="#f2f2f2" id="svg_23" opacity="0.29"/><path d="M731.8200001220703,657.342 H678.6860001220704 a2.251,2.251 0 1 1 0,-4.5 h53.134 a2.251,2.251 0 0 1 0,4.5 z" fill="#f2f2f2" id="svg_24" opacity="0.29"/><path d="M766.9420001220703,632.126 H475.15700012207026 a2.251,2.251 0 0 1 0,-4.5 H766.9420001220703 a2.251,2.251 0 1 1 0,4.5 z" fill="#f2f2f2" id="svg_25" opacity="0.29"/><path d="M431.02900012207033,632.126 H377.8970001220703 a2.251,2.251 0 0 1 0,-4.5 h53.134 a2.251,2.251 0 0 1 0,4.5 z" fill="#f2f2f2" id="svg_26" opacity="0.29"/><path d="M766.9420001220703,706.874 H475.15700012207026 a2.251,2.251 0 1 1 0,-4.5 H766.9420001220703 a2.251,2.251 0 1 1 0,4.5 z" fill="#f2f2f2" id="svg_27" opacity="0.29"/><path d="M431.02900012207033,706.874 H377.8970001220703 a2.251,2.251 0 1 1 0,-4.5 h53.134 a2.251,2.251 0 0 1 0,4.5 z" fill="#f2f2f2" id="svg_28" opacity="0.29"/><path d="M519.06,401.13l-72.046,71.145L519.06,543.42l16.21-16.21-54.484-54.485L535.72,417.79Z" fill="#e84545" id="svg_29" opacity="0.29"/><path d="M625.327,401.13l72.046,71.145L625.327,543.42l-16.21-16.21L663.6,472.725,608.667,417.79Z" fill="#e84545" id="svg_30" opacity="0.29"/><circle cx="216.19400024414062" cy="177" r="9" fill="#e84545" id="svg_31" opacity="0.29"/><circle cx="240.19400024414062" cy="177" r="9" fill="#e84545" id="svg_32" opacity="0.29"/><circle cx="264.1940002441406" cy="177" r="9" fill="#e84545" id="svg_33" opacity="0.29"/><rect width="752" height="3" opacity="0.29" y="192" x="196.19400024414062" id="svg_34"/><path d="M1126.1970001220702,607.454 c0,63.771 -37.911,86.038 -84.676,86.038 s-84.676,-22.266 -84.676,-86.038 s84.676,-144.9 84.676,-144.9 S1126.1970001220702,543.682 1126.1970001220702,607.454 z" fill="#f2f2f2" id="svg_35" opacity="0.29"/><path d="M1038.43,683.736l.87-53.371,36.09-66.027-35.95,57.655.39-24,24.87-47.769-24.77,41.419h0l.7-43.161,26.64-38.031L1040.74,541.7l.44-79.141-2.75,104.769.22-4.322-27.08-41.451,26.65,49.748-2.53,48.2-.07-1.28L1004.4,574.6l31.12,48.141-.31,6.028-.06.091.03.495-6.4,122.3h8.55l1.02-63.168,31.05-48.024Z" fill="#3f3d56" id="svg_36" opacity="0.29"/><path d="M122.62200012207032,751.091 a43.127,43.127 0 0 1 -8.178,3.5 c-5.079,1.387 -10.507,0.8780000000000001 -15.637,2.063 c-2.1,0.48500000000000004 -4.386,1.5 -5.054,3.549 c-0.49000000000000005,1.5 0.04300000000000001,3.127 0.553,4.623 c5.6690000000000005,16.62 9.085,34.266 18.125,49.32 a74.641,74.641 0 0 0 13.993,16.988 c2.055,1.852 4.384,3.664 7.135,3.955 a7.248,7.248 0 0 0 7.371,-10.182 c-0.811,-1.8 -2.317,-3.2 -3.289,-4.916 a18.757,18.757 0 0 1 -1.819,-6.991 c-0.8930000000000001,-7.108 -1.7530000000000001,-14.538 0.7090000000000001,-21.265 c1.6520000000000001,-4.5120000000000005 4.682,-8.359 7.206,-12.448 s4.622,-8.772 4.06,-13.544 c-0.38300000000000006,-3.257 -1.972,-6.237 -3.6500000000000004,-9.054 s-5,-10.408 -8.383000000000001,-11.35 C132.2570001220703,744.364 125.68000012207031,749.524 122.62200012207032,751.091 z" fill="#2b2e4a" id="svg_37" opacity="0.29"/><path d="M215.05700012207032,808.5 a14.019,14.019 0 0 1 -0.6630000000000001,4.745 c-1.058,2.793 -3.681,4.706 -5.036,7.367 c-1.8850000000000002,3.7 -1.031,8.174 0.21800000000000003,12.135 c0.783,2.483 1.81,5.067 3.912,6.6 a12.894,12.894 0 0 0 5.954,1.907 c18.036,2.5 36.358,1.064 54.559,1.5870000000000002 c3.317,0.1 6.829,0.21100000000000002 9.725,-1.4100000000000001 s4.686,-5.7 2.717,-8.368 c-1.7690000000000001,-2.4 -5.265,-2.376 -8.242,-2.518 a33.912,33.912 0 0 1 -20.913,-8.615 a15.111,15.111 0 0 1 -2.933,-3.3770000000000002 a20.75,20.75 0 0 1 -1.534,-3.518 a156.8,156.8 0 0 0 -9.084,-20.119 c-0.979,-1.815 -2.087,-3.7 -3.906,-4.676 a10.322,10.322 0 0 0 -4.239,-0.926 c-4.536,-0.29400000000000004 -16.283,-1.838 -19.791,1.6900000000000002 C212.55800012207033,794.268 215.12900012207032,804.36 215.05700012207032,808.5 z" fill="#2b2e4a" id="svg_38" opacity="0.29"/><circle cx="242.97100257873535" cy="376.7199954986572" r="28.975000381469727" fill="#fbbebe" id="svg_39" opacity="0.29"/><path d="M216.80600012207032,400.646 c-1.723,4.614 -4.647,8.947 -8.9,11.43 l40.075,8.175 a42.453,42.453 0 0 1 -0.562,-17.869 a10.3,10.3 0 0 0 0.24000000000000002,-4.409 c-0.7540000000000001,-2.907 -4.026,-4.307 -6.955,-4.974 c-7.314,-1.6670000000000003 -13.782,-2.561 -20.579,-5.792 C218.0470001220703,390.763 218.33800012207033,396.545 216.80600012207032,400.646 z" fill="#fbbebe" id="svg_40" opacity="0.29"/><path d="M207.5710001220703,401.227 a31.338,31.338 0 0 1 27.313,0.7140000000000001 c5.138,2.707 9.392,6.7940000000000005 13.572,10.827 c3.853,3.717 7.962,7.9719999999999995 8.236,13.319 c0.132,2.59 -0.6760000000000002,5.123 -1.084,7.684 a25.766000000000002,25.766000000000002 0 0 0 13.78,26.469 c3.184,5.3 3.841,11.729 3.8890000000000002,17.914 c0.18500000000000003,23.436 -7.209,47.161 -1.9300000000000002,70 c1.239,5.361 3.162,10.554 4.232,15.951 c1.387,6.991 1.318,14.18 2.044,21.27 a95.266,95.266 0 0 0 5.113,22.5 c-1.7440000000000002,2.774 -5.374,3.837 -8.642,3.613 s-6.325,-1.6430000000000002 -9.242,-3.136 c-14.123,-7.227 -27.059,-16.757 -41.687,-22.9 c-9.678,-4.064 -19.988,-6.595 -29.376,-11.288 s-18.12,-12.142 -20.99,-22.238 c-1.241,-4.365 -1.318,-8.965 -1.385,-13.5 c-0.28500000000000003,-19.114 -0.55,-38.436 3.6100000000000003,-57.094 c3.669,-16.454 10.742,-32.194 12.284,-48.981 c0.5,-5.464 0.513,-11.314 3.566,-15.873 C195.18800012207032,410.02 204.5060001220703,408.351 207.5710001220703,401.227 z" fill="#2b2e4a" id="svg_41" opacity="0.29"/><path d="M226.4920001220703,377.129 c1.707,-2.227 5,-2.531 7.728,-1.872 s5.243,2.064 8,2.6 a4.675,4.675 0 0 0 3.7430000000000003,-0.526 a5.444,5.444 0 0 0 1.6150000000000002,-3.5700000000000003 a68.163,68.163 0 0 0 0.6710000000000002,-17.38 a5.146,5.146 0 0 1 0.15900000000000003,-2.4370000000000003 c0.6820000000000002,-1.6430000000000002 2.763,-2.035 4.462,-2.5620000000000003 a13.316,13.316 0 0 0 9.013,-13.633000000000001 a5.421,5.421 0 0 0 -1.657,-3.741 c-1.175,-0.9580000000000001 -2.8200000000000003,-1.016 -4.336,-1.029 q-11.683,-0.09400000000000003 -23.367,0.006000000000000002 c-2.883,0.025000000000000005 -5.91,0.1 -8.409,1.533 c-1.848,1.063 -3.222,2.773 -4.88,4.112 c-4.3260000000000005,3.491 -10.178,4.2 -15.441,5.991 a15.308,15.308 0 0 0 -6.768,4.036 c-1.75,2 -2.592,4.973 -1.493,7.393 a26.253,26.253 0 0 0 1.887,2.9 c3.1,4.964 1.038,11.4 1.5,17.24 c0.5790000000000001,7.288 11.365,19.112 18.679,20.836 C229.4050001220703,399.811 222.5830001220703,381.914 226.4920001220703,377.129 z" fill="#2f2e41" id="svg_42" opacity="0.29"/><path d="M210.13500012207032,696.683 c0.7450000000000001,5.322 1.7000000000000002,10.662 1.445,16.029 c-0.35700000000000004,7.494 -3.059,14.714 -3.559,22.2 c-0.37300000000000005,5.591 0.49000000000000005,11.242 -0.28700000000000003,16.791 c-0.5,3.553 -1.6560000000000001,6.979 -2.373,10.494 a43.4,43.4 0 0 0 6.973,33.265 a5.447,5.447 0 0 0 2.023,1.961 a5.714,5.714 0 0 0 2.508,0.3320000000000001 a179.964,179.964 0 0 0 25.17,-2.2880000000000003 a2.414,2.414 0 0 0 1.616,-0.7130000000000001 a2.266,2.266 0 0 0 0.35100000000000003,-0.9540000000000001 c1.544,-7.936 -1.9769999999999999,-15.893 -2.872,-23.928 c-0.9560000000000001,-8.58 1.1,-17.177 3.146,-25.565 a113.546,113.546 0 0 1 3.467,-12.228 c0.988,-2.7 2.181,-5.321 3.037,-8.063 a61.463,61.463 0 0 0 2.2,-13.2 q0.8920000000000001,-10.575 0.9450000000000001,-21.2 a88.958,88.958 0 0 0 -1.665,-20.01 c-1.8780000000000001,-8.338000000000001 -5.724,-16.081 -9.536,-23.73 a15.028,15.028 0 0 0 -5.618,2.67 a125.378,125.378 0 0 1 -15.35,8.481 c-3.567,1.657 -10.522,2.833 -12.786,6.286 c-2.232,3.4 -0.792,10.351 -0.6210000000000001,14.106 Q208.7910001220703,687.084 210.13500012207032,696.683 z" fill="#2f2e41" id="svg_43" opacity="0.29"/><path d="M210.13500012207032,696.683 c0.7450000000000001,5.322 1.7000000000000002,10.662 1.445,16.029 c-0.35700000000000004,7.494 -3.059,14.714 -3.559,22.2 c-0.37300000000000005,5.591 0.49000000000000005,11.242 -0.28700000000000003,16.791 c-0.5,3.553 -1.6560000000000001,6.979 -2.373,10.494 a43.4,43.4 0 0 0 6.973,33.265 a5.447,5.447 0 0 0 2.023,1.961 a5.714,5.714 0 0 0 2.508,0.3320000000000001 a179.964,179.964 0 0 0 25.17,-2.2880000000000003 a2.414,2.414 0 0 0 1.616,-0.7130000000000001 a2.266,2.266 0 0 0 0.35100000000000003,-0.9540000000000001 c1.544,-7.936 -1.9769999999999999,-15.893 -2.872,-23.928 c-0.9560000000000001,-8.58 1.1,-17.177 3.146,-25.565 a113.546,113.546 0 0 1 3.467,-12.228 c0.988,-2.7 2.181,-5.321 3.037,-8.063 a61.463,61.463 0 0 0 2.2,-13.2 q0.8920000000000001,-10.575 0.9450000000000001,-21.2 a88.958,88.958 0 0 0 -1.665,-20.01 c-1.8780000000000001,-8.338000000000001 -5.724,-16.081 -9.536,-23.73 a15.028,15.028 0 0 0 -5.618,2.67 a125.378,125.378 0 0 1 -15.35,8.481 c-3.567,1.657 -10.522,2.833 -12.786,6.286 c-2.232,3.4 -0.792,10.351 -0.6210000000000001,14.106 Q208.7910001220703,687.084 210.13500012207032,696.683 z" fill="#2b2e4a" opacity="0.29" id="svg_44"/><path d="M170.96100012207032,583.018 c-3.848,10.359 1.808,21.554 6.722,31.452 c12.106,24.386 20.513,50.407 28.874,76.317 c0.6260000000000001,1.941 1.252,4.058 0.554,5.974 a7.825,7.825 0 0 1 -2.822,3.347 c-5.766,4.3790000000000004 -13.107,5.939 -19.975,8.23 a90.18,90.18 0 0 0 -18.943,8.88 c-4.977,3.084 -9.639,6.644 -14.292,10.2 l-14.812,11.313 a9.9,9.9 0 0 0 -2.476,2.4 c-1.429,2.241 -0.8430000000000001,5.167 -0.132,7.728 a131.434,131.434 0 0 0 7.252,19.792 a6.911,6.911 0 0 0 2.63,3.447 c2.3120000000000003,1.242 5.14,-0.405 6.905,-2.347 s3.292,-4.359 5.781,-5.193 s5.222,0.17600000000000002 7.818,-0.18900000000000003 c4.2,-0.5890000000000001 6.986,-4.457 10.013,-7.427 c12.365,-12.131 33.01,-11.251 46.612,-21.977 a59.224,59.224 0 0 1 6.231,-4.868 c2.3,-1.359 4.907,-2.105 7.293,-3.307 c7.257,-3.654 11.819,-11.208 14.262,-18.957 s3.141,-15.928 4.9,-23.86 c0.908,-4.1 2.1,-8.158 2.507,-12.339 a66.093,66.093 0 0 0 -0.253,-11.666 L250.69700012207034,599.248 c-0.4,-4.943 -0.8,-9.892 -1.576,-14.791 c-14.577,0.521 -29.143,1.108 -43.728,1.28 C193.7970001220703,585.874 181.97300012207032,586.686 170.96100012207032,583.018 z" fill="#2b2e4a" id="svg_45" opacity="0.29"/><path d="M165.6030001220703,597.221 c1.9769999999999999,3.18 6.79,3.114 10.1,1.371 s5.889,-4.673 9.211,-6.4 c4.464,-2.323 9.746,-2.235 14.776,-2.093 c7.964,0.22500000000000003 16.025,0.464 23.687,2.6470000000000002 c7.925,2.257 15.64,6.6 23.834,5.736 c1.4260000000000002,-0.15100000000000002 2.985,-0.56 3.761,-1.766 a5.5440000000000005,5.5440000000000005 0 0 0 0.6200000000000001,-2.8360000000000003 l0.268,-7.159 a6.464,6.464 0 0 0 -0.5700000000000001,-3.625 a6.082,6.082 0 0 0 -2.716,-2.079 c-11.663,-5.646 -24.965,-6.7 -37.915,-7.141 q-9.875,-0.3380000000000001 -19.758,-0.278 c-5.591,0.03400000000000001 -12.3,-0.775 -17.739,0.7190000000000001 C165.8710001220703,576.32 161.89700012207032,591.269 165.6030001220703,597.221 z" fill="#2f2e41" id="svg_46" opacity="0.29"/><path d="M238.83900012207033,409.726 c-15.282,-0.135 -29.131,-10.223 -44.412,-10.468 a11.515,11.515 0 0 0 -5.393,0.93 c-2.129,1.073 -3.529,3.1470000000000002 -5.147,4.9 c-4.518,4.893 -11.061,7.505 -15.7,12.281 c-4.352,4.478 -6.773,11.15 -5.055,17.153 s8.2,10.608 14.279,9.165 a36.8,36.8 0 0 1 14.338000000000001,-19.48 a72.888,72.888 0 0 1 11.205,-5.882 c6.868,-3.112 14.548,-6.283 21.718,-3.95 a30.639,30.639 0 0 1 7.409,4.04 l11.954,8.03 C242.64000012207032,420.95 241.38700012207033,414.788 238.83900012207033,409.726 z" fill="#e84545" id="svg_47" opacity="0.29"/><path d="M175.6490001220703,438.374 c-2.029,2.532 0.8940000000000001,6.2 0.44700000000000006,9.413 c-0.30000000000000004,2.135 -2.054,3.765 -2.786,5.793 c-0.7580000000000001,2.1 -0.35600000000000004,4.427 -0.6430000000000001,6.641 a28.489,28.489 0 0 1 -1.275,4.73 a84.974,84.974 0 0 0 -2.686,14.026 l-2.6750000000000003,19.976 a75.678,75.678 0 0 0 -0.8460000000000001,9.078 a27.107,27.107 0 0 1 -0.452,6.787 c-0.5920000000000001,2.183 -1.9,4.093 -2.786,6.176 s-1.291,4.6 -0.1,6.524 c-3.991,3.325 -5.178,9.854 -2.387,14.235 a7.9,7.9 0 0 1 1.23,2.265 a5.82,5.82 0 0 1 -0.542,3.34 l-2.7,7.207 c-0.6920000000000002,1.8450000000000002 -0.911,4.6530000000000005 1.014,5.074 a17,17 0 0 0 -3.6510000000000002,5.767 a6.866,6.866 0 0 0 0.972,6.506 a8.289,8.289 0 0 1 1.6940000000000002,2.056 a5.473,5.473 0 0 1 -0.2,3.243 a11.906,11.906 0 0 0 1.473,9.333 a8.372,8.372 0 0 0 8.418,3.609 c5.41,-1.22 10.272,-3.1470000000000002 15.728,-2.146 c11.746,2.1550000000000002 23.53,4.32 34.906,7.952 c12.984,4.145 25.556,10.224 39.126,11.5 a3.8,3.8 0 0 0 2.617,-0.40700000000000003 a3.93,3.93 0 0 0 1.21,-2.488 L264.94700012207034,584.9 a202.375,202.375 0 0 0 3.855,-22.028 c0.47700000000000004,-4.781 0.6130000000000001,-9.589 0.7490000000000001,-14.392 l1.081,-38.231 a38.2,38.2 0 0 0 -2.2,-16.62 l-6.217,-19.848 c-3.548,-11.327 -11.688,-21.371 -14.586,-32.882 c-1.834,-7.285 -3.189,-15.1 -8.108,-20.781 c-7.012,-8.095 -19.145,-9.354 -29.764,-7.962 c-4.8,0.6290000000000001 -9.636,1.714 -13.785,4.2 c-4.8,2.8770000000000002 -8.333,7.409 -11.753,11.836 C181.39700012207032,431.843 178.53300012207032,434.776 175.6490001220703,438.374 z" fill="#e84545" id="svg_48" opacity="0.29"/><path d="M200.44400012207032,550.823 c0.8750000000000001,3.773 2.712,7.251 3.837,10.957 c1.8840000000000001,6.209 1.7240000000000002,12.9 3.605,19.105 c0.789,2.606 1.933,5.109 2.5,7.773 c1.3210000000000002,6.211 -0.6080000000000001,12.636 -3,18.516 s-5.313,11.678 -6.091,17.98 c-0.548,4.438 0.23900000000000002,9.45 3.66,12.331 c3.552,2.99 8.713000000000001,2.7880000000000003 13.339,2.39 a14.016,14.016 0 0 0 4.841,-1.008 c3.5380000000000003,-1.6740000000000002 5.028,-5.86 5.855,-9.685 c2.771,-12.819 1.98,-26.106 1.174,-39.2 l-2.106,-34.234 c-0.405,-6.591 -0.8400000000000001,-13.318 -2.871,-19.646 c-0.7390000000000001,-2.3 -2.026,-6.954 -4.129,-8.424 c-2.083,-1.456 -8.03,-1.521 -10.609,-1.6420000000000001 C198.34800012207032,525.47 198.4840001220703,542.356 200.44400012207032,550.823 z" fill="#fbbebe" id="svg_49" opacity="0.29"/><path d="M213.84800012207032,424.423 c-2.471,-1.294 -5.584,-0.7360000000000001 -7.9719999999999995,0.7000000000000001 a24.568,24.568 0 0 0 -5.9719999999999995,5.8 c-5.339,6.517 -10.991,13.995 -10.2,22.382 c0.30000000000000004,3.145 1.5,6.121 2.317,9.172 c3.579,13.38 -0.37900000000000006,27.53 0.07500000000000001,41.373 c0.262,8 2,15.866 3.736,23.679 c0.35400000000000004,1.594 0.92,3.44 2.463,3.977 c1.159,0.4 2.41,-0.11500000000000002 3.557,-0.551 a28.371,28.371 0 0 1 25.964,3.273 c2.865,-1.529 1.791,-6.363 1.149,-9.546 c-1.908,-9.458 0.6820000000000002,-19.214 3.8280000000000003,-28.335 s6.911,-18.23 7.432,-27.865 c0.5910000000000001,-10.916 -3.029,-21.571 -6.6,-31.9 c-0.779,-2.255 -1.6310000000000002,-4.62 -3.439,-6.178 a13.666,13.666 0 0 0 -5.2,-2.3770000000000002 C221.19700012207034,426.906 217.3520001220703,426.258 213.84800012207032,424.423 z" fill="#2b2e4a" id="svg_50" opacity="0.29"/></g></g></svg>