<svg xmlns="http://www.w3.org/2000/svg" width="512.001" height="511.998" viewBox="0 0 512.001 511.998"><path d="M502.285,159.7l-234-156c-7.987-4.915-16.511-4.96-24.571,0l-234,156A22.368,22.368,0,0,0,0,177.989v156a22.368,22.368,0,0,0,9.715,18.286l234,156.022c7.987,4.915,16.511,4.96,24.571,0l234-156.022A22.369,22.369,0,0,0,512,333.988v-156a22.37,22.37,0,0,0-9.716-18.285ZM278,63.131,450.286,177.989l-76.857,51.429L278,165.7Zm-44,0V165.7l-95.429,63.715L61.714,177.989Zm-190,156,55.143,36.857L44,292.846V219.132ZM234,448.847,61.714,333.989l76.857-51.429L234,346.275Zm22-140.858-77.715-52,77.715-52,77.715,52Zm22,140.858V346.275l95.429-63.715,76.857,51.429Zm190-156-55.143-36.857L468,219.132v73.714Z" transform="translate(0 -0.001)" fill="#2b2e4a"/></svg>