<svg xmlns="http://www.w3.org/2000/svg" width="925.255" height="687.323" viewBox="0 0 925.255 687.323"><g transform="translate(0 0)"><rect width="799.809" height="511.726" transform="translate(68.941 48.33)" fill="#53354a"/><rect width="360.104" height="418.857" transform="translate(485.903 140.725)" fill="#f2f2f2"/><path d="M174.04,637.759c10.945,20.3,34.175,29.012,34.175,29.012s5.484-24.2-5.461-44.495-34.175-29.012-34.175-29.012S163.1,617.46,174.04,637.759Z" transform="translate(-137.375 -106.339)" fill="#2b2e4a"/><path d="M181.563,631.081c19.761,11.889,27.371,35.5,27.371,35.5s-24.428,4.339-44.188-7.55-27.371-35.5-27.371-35.5S161.8,619.192,181.563,631.081Z" transform="translate(-137.375 -106.339)" fill="#e84545"/><rect width="218.403" height="8.807" transform="translate(607.702 179.698)" fill="#fff"/><rect width="218.403" height="8.807" transform="translate(607.702 199.073)" fill="#fff"/><rect width="73.975" height="8.807" transform="translate(607.702 218.447)" fill="#fff"/><rect width="218.403" height="8.807" transform="translate(159.218 444.09)" fill="#fff"/><rect width="218.403" height="8.807" transform="translate(159.218 463.465)" fill="#fff"/><rect width="73.975" height="8.807" transform="translate(159.218 482.839)" fill="#fff"/><rect width="218.403" height="8.807" transform="translate(556.53 287.729)" fill="#fff"/><rect width="218.403" height="8.807" transform="translate(556.53 307.104)" fill="#fff"/><rect width="218.403" height="8.807" transform="translate(556.53 326.057)" fill="#fff"/><rect width="218.403" height="8.807" transform="translate(556.53 345.01)" fill="#fff"/><rect width="218.403" height="8.807" transform="translate(556.53 363.962)" fill="#fff"/><rect width="218.403" height="8.807" transform="translate(556.53 382.915)" fill="#fff"/><rect width="218.403" height="8.807" transform="translate(556.53 401.868)" fill="#fff"/><rect width="218.403" height="8.807" transform="translate(556.53 420.821)" fill="#fff"/><rect width="218.403" height="8.807" transform="translate(556.53 439.774)" fill="#fff"/><rect width="218.403" height="8.807" transform="translate(556.53 458.727)" fill="#fff"/><rect width="218.403" height="8.807" transform="translate(556.53 477.679)" fill="#fff"/><path d="M485.377,410.4a79.386,79.386,0,0,1-29.538,61.871,78.457,78.457,0,0,1-10.888,7.42,76.921,76.921,0,0,1-7.126,3.573,78.8,78.8,0,0,1-25.482,6.453q-3.241.27-6.548.265a78.643,78.643,0,0,1-13.021-1.071c-1.516-.237-3.014-.531-4.492-.872a76.576,76.576,0,0,1-7.647-2.123,79.4,79.4,0,0,1-27.927-16.243,72.43,72.43,0,0,1-5.923-5.894A79.575,79.575,0,1,1,485.377,410.4Z" transform="translate(-137.375 -106.339)" fill="#e84545"/><path d="M722.136,321.621c.113,25.472-14.99,34.431-33.668,34.514q-.651,0-1.3-.009-1.3-.022-2.57-.107c-16.863-1.119-30-10.41-30.107-34.1-.109-24.515,31.086-55.591,33.425-57.889l0,0,.134-.131S722.023,296.152,722.136,321.621Z" transform="translate(-137.375 -106.339)" fill="#e84545"/><path d="M687.22,352.245l12.293-17.338L687.2,354.142l-.024,1.985q-1.3-.022-2.57-.107l1.22-25.488-.011-.2.023-.037.116-2.408-12.517-19.173,12.547,17.369.033.51.921-19.257L676.2,287.516l10.846,16.438.871-39.922,0-.133v.131l-.035,31.48,10.537-12.526-10.571,15.238-.2,17.241,9.822-16.588L687.624,318l-.113,9.587,14.258-23.092-14.3,26.437Z" transform="translate(-137.375 -106.339)" fill="#3f3d56"/><path d="M1005.65,378.786A132.67,132.67,0,0,0,872.981,511.454h0a38.853,38.853,0,0,1-38.853,38.853h-64.44A115.612,115.612,0,0,0,654.076,665.92h351.575V378.786Z" transform="translate(-137.375 -106.339)" fill="#53354a"/><path d="M0,0H17.058V511.726H0Z" transform="translate(459.843 48.33)" fill="#2b2e4a"/><path d="M440.383,147.087V133.82a27.482,27.482,0,0,0-54.963,0v13.267H333.3v29.377H492.5V147.087ZM412.9,113.92a16.11,16.11,0,1,1-16.11,16.11,16.11,16.11,0,0,1,16.11-16.11Z" transform="translate(-137.375 -106.339)" fill="#e84545"/><path d="M419.926,405.147s-7.916,22.529-3.044,26-16.44,31.772-16.44,31.772l-25.573-6.932,14-23.684s1.827-23.684,1.827-27.15S419.926,405.147,419.926,405.147Z" transform="translate(-137.375 -106.339)" fill="#ffb8b8"/><path d="M419.926,405.147s-7.916,22.529-3.044,26-16.44,31.772-16.44,31.772l-25.573-6.932,14-23.684s1.827-23.684,1.827-27.15S419.926,405.147,419.926,405.147Z" transform="translate(-137.375 -106.339)" opacity="0.1"/><circle cx="20.796" cy="20.796" r="20.796" transform="translate(245.58 273.969)" fill="#ffb8b8"/><path d="M388.282,488.039a76.561,76.561,0,0,1-7.647-2.123l3.98-27.292,1.232-8.415,6.311,2.369c.853.313,1.82.682,2.928,1.09a6.657,6.657,0,0,0,5.288-.189c6.1-2.8,9.732-13.675,9.732-13.675s.246,3.051.569,8.216c.578,9.069,1.412,24.667,1.668,41.7q-3.241.27-6.548.265a78.646,78.646,0,0,1-13.021-1.071C391.258,488.674,389.76,488.38,388.282,488.039Z" transform="translate(-137.375 -106.339)" fill="#d0cde1"/><path d="M393.93,436.345l-1.772,16.233-.862,7.856-3.014,27.6a76.561,76.561,0,0,1-7.647-2.123,79.4,79.4,0,0,1-27.927-16.243L348.87,455.98a16.2,16.2,0,0,1,.246-2.435.035.035,0,0,1,.009-.028,17.22,17.22,0,0,1,.474-2.123.073.073,0,0,0,.009-.028,15.732,15.732,0,0,1,3.885-6.937c4.624-4.624,35.233-19.067,35.233-19.067l.578,1.213Z" transform="translate(-137.375 -106.339)" fill="#d0cde1"/><path d="M403.308,371.713c4.61-.165,9.544-.246,13.431,2.238a19.663,19.663,0,0,1,4.642,4.544c3.786,4.786,7.057,10.808,5.651,16.746L425.4,394.6a10.694,10.694,0,0,0,1.031,4.582c-.23-.668-1,.413-.794,1.089l1.8,5.9a5.557,5.557,0,0,0-7.087,4.229c-.206-6.856-.917-14.717-6.478-18.732-2.8-2.024-6.354-2.642-9.769-3.191-3.151-.506-6.453-.989-9.471.048s-5.587,4.123-4.9,7.24a3.225,3.225,0,0,0-3.635,1.792,9.41,9.41,0,0,0-.744,4.308c-1.483,1.048-3.171-1.033-3.776-2.746-1.419-4.02-2.68-8.3-1.916-12.494s4.182-8.2,8.445-8.216a2.96,2.96,0,0,1-.77-2.084l3.514-.3a3.884,3.884,0,0,1-2.321-1.224C389.934,376.362,401.027,371.8,403.308,371.713Z" transform="translate(-137.375 -106.339)" fill="#2f2e41"/><path d="M451.7,451.365c-.54,4.331-3.629,16.565-6.747,28.325a76.929,76.929,0,0,1-7.126,3.573,78.8,78.8,0,0,1-25.482,6.453q-3.241.27-6.548.265a78.644,78.644,0,0,1-13.021-1.071c1.611-6.216,3.781-16.46,5.809-26.5.616-3.032,1.222-6.055,1.791-8.936,2.227-11.353,3.952-20.6,3.952-20.6s6.918-6.785,11.021-8.358a3.557,3.557,0,0,1,1.772-.294c3.383.559,8.008,8.652,8.008,8.652s20.753,6.918,25.605,14.774A5.748,5.748,0,0,1,451.7,451.365Z" transform="translate(-137.375 -106.339)" fill="#d0cde1"/><path d="M363.89,451.365l-1.213,25.927a78.771,78.771,0,0,1-9.969-7.619,72.425,72.425,0,0,1-5.923-5.894c1-4.369,1.829-8.045,2.331-10.234a.035.035,0,0,1,.009-.028c.265-1.213.436-1.962.474-2.123a.073.073,0,0,0,.009-.028Z" transform="translate(-137.375 -106.339)" fill="#d0cde1"/><path d="M455.839,472.27a78.459,78.459,0,0,1-10.888,7.42,76.929,76.929,0,0,1-7.126,3.573l-2.3-13.419,2.312-25.416,12.9,3.222.967.246Z" transform="translate(-137.375 -106.339)" fill="#d0cde1"/><path d="M1002.63,516.84s-9,44,6,40,9-42,9-42Z" transform="translate(-137.375 -106.339)" fill="#a0616a"/><path d="M1044.63,334.84h-10s-11,8-10,17-18,87-18,97-4,13-4,19,2,10,0,13-6,21-5,28a56.393,56.393,0,0,1,0,14h25s18-61,22-64,6-8,6-11-2-3,3-7,2-22,2-22l7-18Z" transform="translate(-137.375 -106.339)" fill="#903749"/><path d="M1044.63,334.84h-10s-11,8-10,17-18,87-18,97-4,13-4,19,2,10,0,13-6,21-5,28a56.393,56.393,0,0,1,0,14h25s18-61,22-64,6-8,6-11-2-3,3-7,2-22,2-22l7-18Z" transform="translate(-137.375 -106.339)" fill="none" opacity="0.1"/><path d="M904.625,492.34s-9,44,6,40,9-42,9-42Z" transform="translate(-137.375 -106.339)" fill="#a0616a"/><path d="M770.25,591l-6,25,22,14,6-30Z" fill="#a0616a"/><path d="M874.25,622l-11,15,13,15h18V622Z" fill="#a0616a"/><path d="M1034.63,745.34h-6a22.578,22.578,0,0,0-9,0c-6,1-14.142-8.625-14.142-8.625l-7.858,6.625s-16,4-8,23l18,11s9,19,27,16,5-23,5-23Z" transform="translate(-137.375 -106.339)" fill="#2b2e4a"/><path d="M907.625,710.34l-1.521-6.662-13.479,3.662s-28-18-28,6,22,32,22,32,8-1,8,6,21,18,29,14,8-14,8-14l-2-28-9,2s-17-1-14-5S907.625,710.34,907.625,710.34Z" transform="translate(-137.375 -106.339)" fill="#2b2e4a"/><path d="M936.625,480.34s-12,16-12,25-4,89-4,89-22,102-16,108,24,15,27,12,24-112,24-112l25-67,23,96s-1,83,3,84,6,2,4,6-5,12-5,12,25,6,30,2,6-101,0-135,1-112,1-112Z" transform="translate(-137.375 -106.339)" fill="#2b2e4a"/><circle cx="30" cy="30" r="30" transform="translate(805.75 120.501)" fill="#a0616a"/><path d="M964.125,275.84s4,21,0,27,54,2,54,2-28-32-25-38S964.125,275.84,964.125,275.84Z" transform="translate(-137.375 -106.339)" fill="#a0616a"/><path d="M938.625,310.34s20-26,45-21c6.749,1.35,12.916,2.7,18.322,3.951,19.049,4.41,34.889,17.986,41.4,36.424,1.688,4.781,2.531,9.375,1.781,13.125-3,15-1.5,133.5-1.5,133.5s-8,3-7,7,8,9,1,9-113-4-111-7S938.625,310.34,938.625,310.34Z" transform="translate(-137.375 -106.339)" fill="#903749"/><path d="M948.625,310.34h-10s-11,8-10,17-18,87-18,97-4,13-4,19,2,10,0,13-6,21-5,28a56.4,56.4,0,0,1,0,14h25s18-61,22-64,6-8,6-11-2-3,3-7,2-22,2-22l7-18Z" transform="translate(-137.375 -106.339)" fill="#903749"/><path d="M796.671,377.682,826.75,311.5l-15.039,70.384Z" opacity="0.1"/><path d="M962.659,211.473l.016-2.476a19.3,19.3,0,0,1,6.206.218,10.08,10.08,0,0,0-.908-4.335,19.621,19.621,0,0,1,5.934,1.766l.689-4.6,17.911,6.277c6.429,2.253,13.224,4.762,17.4,10.148,4.652,6,4.989,14.4,3.2,21.787s-5.418,14.165-8.129,21.26a50.28,50.28,0,0,1-3.805,8.746c-5.414,8.727-17.636,11.841-27.213,8.133-3.534-1.368-6.872-3.65-8.663-6.99a51.878,51.878,0,0,1-2.335-6.376c-1.664-4.409-4.095-13.633-8.135-16.059-1.778-1.068-4.489,3.517-6.024,2.122-3.945-3.583-3.969-9.845-2.407-14.941a110.326,110.326,0,0,1,5.5-14.941C952.843,219.262,962.661,211.176,962.659,211.473Z" transform="translate(-137.375 -106.339)" fill="#2f2e41"/></g></svg>