<svg xmlns="http://www.w3.org/2000/svg" width="1168.755" height="684.516" viewBox="0 0 1168.755 684.516"><g transform="translate(0 0)"><path d="M1056.38,363.742a128,128,0,1,1,128-128A128,128,0,0,1,1056.38,363.742Zm0-254a126,126,0,1,0,126,126,126,126,0,0,0-126-126Z" transform="translate(-15.625 -107.742)" fill="#3f3d56"/><circle cx="64.273" cy="64.273" r="64.273" transform="translate(976.907 64.094)" fill="#d0cde1"/><path d="M0,0H981.176V492.924H0Z" transform="translate(64.244 128.517)" fill="#2b2e4a"/><path d="M0,0H367.941V252.3H0Z" transform="translate(339.908 271.021)" opacity="0.1"/><circle cx="25.917" cy="25.917" r="25.917" transform="translate(1103.234 12.112)" fill="#e84545"/><path d="M11.681,0A11.681,11.681,0,1,1,0,11.681,11.681,11.681,0,0,1,11.681,0Z" transform="translate(81.765 135.525)" fill="#e84545"/><path d="M11.681,0A11.681,11.681,0,1,1,0,11.681,11.681,11.681,0,0,1,11.681,0Z" transform="translate(117.974 135.525)" fill="#e84545"/><path d="M11.681,0A11.681,11.681,0,1,1,0,11.681,11.681,11.681,0,0,1,11.681,0Z" transform="translate(154.185 135.525)" fill="#e84545"/><path d="M0,0H23.361V23.361H0Z" transform="translate(177.546 311.903)" fill="#e84545"/><rect width="23.361" height="23.361" transform="translate(888.899 515.147)" fill="#fff"/><path d="M0,0H23.361V23.361H0Z" transform="matrix(0.777, -0.629, 0.629, 0.777, 811.733, 367.402)" fill="#e84545"/><path d="M747.563,670.5H14.017V275.693h2.336V668.164h731.21Z" fill="#3f3d56"/><path d="M777.205,792.258a15.185,15.185,0,1,1,15.185-15.185,15.185,15.185,0,0,1-15.185,15.185Zm0-28.034a12.849,12.849,0,1,0,12.849,12.849,12.849,12.849,0,0,0-12.849-12.849Z" transform="translate(-15.625 -107.742)" fill="#3f3d56"/><path d="M30.81,384.6a15.185,15.185,0,1,1,15.185-15.185A15.185,15.185,0,0,1,30.81,384.6Zm0-28.034a12.849,12.849,0,1,0,12.849,12.849A12.849,12.849,0,0,0,30.81,356.569Z" transform="translate(-15.625 -107.742)" fill="#3f3d56"/><path d="M250.407,699.981l-10.431,29.2H216.533V699.4c1.729-37.367,22.7-54.934,23.35-55.471-15.757,15.2-14.005,67.736-14.005,67.736,10.513-45.555,19.857-46.723,19.857-46.723-5.653,8.492-8.574,47.12-8.749,49.526C237.686,706.347,250.407,699.981,250.407,699.981Z" transform="translate(-15.625 -107.742)" fill="#f2f2f2"/><path d="M975.776,703.952v25.23H957.753l-8.842-24.775s10.08,5.046,10.641,11.482c-.14-1.986-2.453-32.542-6.938-39.27,0,0,7.417.923,15.757,37.051,0,0,1.378-41.665-11.108-53.719C957.788,660.383,974.41,674.307,975.776,703.952Z" transform="translate(-15.625 -107.742)" fill="#f2f2f2"/><path d="M660.34,631.06H631.93l-.19-2.33-2.07-25.97v-.01l-2.15-27,13.11-55.69,11.14,11.14v53.07s6.55,9.83,5.24,12.45-2.62,2.62-1.31,4.58,2.62,3.28,1.31,4.59a4.92,4.92,0,0,0,0,5.9c1.31,1.31,3.93,3.27,1.96,5.24s-4.58.65-1.96,7.86a23,23,0,0,0,1.8,3.84A25.5,25.5,0,0,0,660.34,631.06Z" transform="translate(-15.625 -107.742)" fill="#903749"/><path d="M557.189,343.847l-3.931,39.312,39.967,5.9,2.948-22.6,2.949-22.605Z" fill="#ffb9b9"/><path d="M557.189,343.847l-3.931,39.312,39.967,5.9,2.948-22.6,2.949-22.605Z" opacity="0.1"/><circle cx="31.45" cy="31.45" r="31.45" transform="translate(547.688 293.724)" fill="#ffb9b9"/><path d="M515.29,631.06c-.11-.23-.23-.47-.35-.73-.23-.49-.48-1.02-.75-1.6-1.74-3.88-3.87-9.4-2.64-11.05,1.97-2.62,2.62-5.24,1.31-6.55s-5.24,1.31-1.31-1.97,5.24-1.31,3.93-5.24-3.93-1.96-1.31-3.93,4.59-1.31,3.28-3.27-3.93-1.97-1.31-3.28,4.59,0,3.93-3.28-1.31-1.96,0-3.27c.34-.34,1.53-3.64,3.12-8.35,4.45-13.31,11.95-37.86,11.95-38.83,0-1.31-10.48-42.58-10.48-42.58l-4.59-2.63s-20.31,13.76-26.86,44.56-11.14,38.66-11.14,38.66-6.55,1.31-1.97,5.89,4.59,3.93.66,6.55-6.55-2.62-3.93,2.62,5.89,3.94,3.27,7.21-7.2,3.28-4.58,5.9-2.62,8.52.65,11.14,4.59,3.27,4.59,7.86a24.268,24.268,0,0,0,.31,3.84,19.6,19.6,0,0,0,.48,2.33c.15.61.3,1.07.4,1.36Z" transform="translate(-15.625 -107.742)" fill="#903749"/><path d="M499.665,523.318h2.67l.14-.93-3.16.2-11.49.73-21.5,1.36Z" fill="#3f3d56"/><path d="M529.24,603.27l-5.89-20.31-.16-4.42-3.12-84.04,38.66-13.75,6.55-5.25s1.31-15.07,3.28-16.38c.71-.47,1.85.08,3.36,1.36,2.65,2.25,6.45,6.74,11.05,11.75,7.21,7.86,22.28,6.55,26.86,3.93a15.465,15.465,0,0,1,1.83-.91c3.29-1.36,4.72-.4,4.72-.4,3.28,2.62-4.58,11.14-4.58,11.14s2.62,5.89,19.65,11.79,20.32,33.42,20.32,33.42-20.32,55.03-19.66,58.96c.56,3.37-1.76,10.59-2.44,12.59v.01c-.11.32-.18.51-.18.51l1.49,25.46.14,2.33H532.01a13.48,13.48,0,0,0-1.11-2.33c-.11-.18-.23-.37-.35-.56C524.66,618.99,529.24,603.27,529.24,603.27Z" transform="translate(-15.625 -107.742)" fill="#903749"/><path d="M563.095,436.944s-3.266-4.9-2.01-10.174a30.836,30.836,0,0,0,.879-9.17s2.638-8.542,5.276-13.315,1.382-6.783,9.672-8.29,4.9-12.31,26.755-.628a6.41,6.41,0,0,0,6.657,2.512c4.522-.879,6.155,5.4,6.155,5.4s3.015-1.759,4.145.754,9.191-1.508,9.191,15.45-9.173,32.1-9.173,32.1.672-28.525-14.275-31.414-31.026-11.3-34.92-.5A82.353,82.353,0,0,1,563.095,436.944Z" transform="translate(-15.625 -107.742)" fill="#2f2e41"/><ellipse cx="2.948" cy="3.931" rx="2.948" ry="3.931" transform="translate(602.398 328.123)" fill="#ffb9b9"/><path d="M355.53,360.07V631.06H785.38V360.07ZM783.05,628.73H357.87V362.41H783.05Z" transform="translate(-15.625 -107.742)" fill="#fff"/></g></svg>