<svg xmlns="http://www.w3.org/2000/svg" xmlns:xlink="http://www.w3.org/1999/xlink" width="796" height="684" viewBox="0 0 796 684"><defs><linearGradient id="a" x1="0.5" y1="1" x2="0.5" gradientUnits="objectBoundingBox"><stop offset="0.01" stop-color="gray" stop-opacity="0.251"/><stop offset="0.54" stop-color="gray" stop-opacity="0.122"/><stop offset="1" stop-color="gray" stop-opacity="0.102"/></linearGradient><linearGradient id="b" x1="0.5" y1="1" x2="0.5" gradientUnits="objectBoundingBox"><stop offset="0" stop-color="#b3b3b3" stop-opacity="0.251"/><stop offset="0.54" stop-color="#b3b3b3" stop-opacity="0.122"/><stop offset="1" stop-color="#b3b3b3" stop-opacity="0.102"/></linearGradient></defs><rect width="796" height="684" fill="url(#a)"/><rect width="776.76" height="662.68" transform="translate(9.62 10.23)" fill="#fff"/><rect width="254" height="20.81" transform="translate(118.5 81.85)" fill="#bdbdbd"/><rect width="555" height="20.81" transform="translate(118.5 123.47)" fill="#e0e0e0"/><rect width="555" height="20.81" transform="translate(118.5 165.08)" fill="#e84545"/><rect width="160" height="158.5" transform="translate(113 262)" fill="url(#b)"/><rect width="159" height="158.5" transform="translate(316 262)" fill="url(#b)"/><rect width="159" height="158.5" transform="translate(519 262)" fill="url(#b)"/><rect width="160" height="156.5" transform="translate(113 460)" fill="url(#b)"/><rect width="159" height="156.5" transform="translate(316 460)" fill="url(#b)"/><rect width="159" height="156.5" transform="translate(519 460)" fill="url(#b)"/><rect width="149" height="149" transform="translate(118.5 265.5)" fill="#903749"/><rect width="149" height="149" transform="translate(321.5 265.5)" fill="#903749"/><rect width="149" height="149" transform="translate(524.5 265.5)" fill="#903749"/><rect width="149" height="149" transform="translate(118.5 461.5)" fill="#903749"/><rect width="149" height="149" transform="translate(321.5 461.5)" fill="#903749"/><rect width="149" height="149" transform="translate(524.5 461.5)" fill="#903749"/></svg>